<svg xmlns="http://www.w3.org/2000/svg" viewBox="4.5 -24.2 437.0 437.0" width="437" height="437">
  <path d="M 202.5 19.0 C 204.7 19.2 211.5 18.2 215.0 20.5 C 218.5 22.8 221.4 24.6 223.5 33.0 C 225.6 41.4 224.8 55.5 227.5 71.0 C 230.2 86.5 237.0 111.3 239.5 126.0 C 242.0 140.7 241.1 151.1 242.5 159.0 C 243.9 166.9 246.6 171.1 248.0 173.5 C 249.4 175.9 249.8 174.8 251.0 173.5 C 252.2 172.2 254.2 170.6 255.5 166.0 C 256.8 161.4 255.5 158.7 258.5 146.0 C 261.5 133.3 269.8 106.8 273.5 90.0 C 277.2 73.2 278.7 53.7 280.5 45.0 C 282.3 36.3 282.8 39.9 284.5 38.0 C 286.2 36.1 287.8 34.1 291.0 33.5 C 294.2 32.9 300.6 32.9 304.0 34.5 C 307.4 36.1 310.2 36.4 311.5 43.0 C 312.8 49.6 312.3 65.7 311.5 74.0 C 310.7 82.3 307.8 85.2 306.5 93.0 C 305.2 100.8 306.2 107.5 303.5 121.0 C 300.8 134.5 292.5 160.5 290.5 174.0 C 288.5 187.5 289.7 193.0 291.5 202.0 C 293.3 211.0 298.4 221.8 301.5 228.0 C 304.6 234.2 307.1 237.1 310.0 239.5 C 312.9 241.9 315.2 242.5 319.0 242.5 C 322.8 242.5 324.5 243.7 333.0 239.5 C 341.5 235.3 361.0 223.3 370.0 217.5 C 379.0 211.7 380.7 208.0 387.0 204.5 C 393.3 201.0 401.2 197.8 408.0 196.5 C 414.8 195.2 422.9 194.8 428.0 196.5 C 433.1 198.2 436.8 203.8 438.5 207.0 C 440.2 210.2 440.1 212.8 438.5 216.0 C 436.9 219.2 435.1 220.9 429.0 226.5 C 422.9 232.1 412.5 242.0 402.0 249.5 C 391.5 257.0 376.6 263.1 366.0 271.5 C 355.4 279.9 346.9 289.6 338.5 300.0 C 330.1 310.4 321.7 326.0 315.5 334.0 C 309.3 342.0 304.5 344.0 301.5 348.0 C 298.5 352.0 298.2 354.5 297.5 358.0 C 296.8 361.5 316.9 367.1 297.5 369.0 C 278.1 370.9 204.3 373.5 181.0 369.5 C 157.7 365.5 166.9 358.9 157.5 345.0 C 148.1 331.1 133.1 299.1 124.5 286.0 C 115.9 272.9 122.9 277.9 106.0 266.5 C 89.1 255.1 38.9 227.6 23.0 217.5 C 7.1 207.4 13.1 209.1 10.5 206.0 C 7.9 202.9 7.2 202.1 7.5 199.0 C 7.8 195.9 10.6 189.9 12.0 187.5 C 13.4 185.1 13.8 185.0 16.0 184.5 C 18.2 184.0 18.2 181.2 25.0 184.5 C 31.8 187.8 45.2 198.3 57.0 204.5 C 68.8 210.7 85.7 216.3 96.0 221.5 C 106.3 226.7 114.0 233.3 119.0 235.5 C 124.0 237.7 123.9 235.4 126.0 234.5 C 128.1 233.6 132.4 234.1 131.5 230.0 C 130.6 225.9 126.0 217.8 120.5 210.0 C 115.0 202.2 110.2 198.8 98.5 183.0 C 86.8 167.2 58.3 128.2 50.5 115.0 C 42.7 101.8 50.6 106.8 51.5 104.0 C 52.4 101.2 53.9 100.1 56.0 98.5 C 58.1 96.9 61.3 95.0 64.0 94.5 C 66.7 94.0 69.4 94.2 72.0 95.5 C 74.6 96.8 74.4 95.6 79.5 102.0 C 84.6 108.4 92.7 121.8 102.5 134.0 C 112.3 146.2 130.3 164.8 138.5 175.0 C 146.7 185.2 148.2 190.8 151.5 195.0 C 154.8 199.2 156.2 199.6 158.0 200.5 C 159.8 201.4 160.8 201.1 162.0 200.5 C 163.2 199.9 169.9 208.1 165.5 197.0 C 161.1 185.9 142.7 151.2 135.5 134.0 C 128.3 116.8 127.0 105.8 122.5 94.0 C 118.0 82.2 110.7 70.2 108.5 63.0 C 106.3 55.8 107.2 54.6 109.5 51.0 C 111.8 47.4 118.1 42.9 122.0 41.5 C 125.9 40.1 130.4 41.6 133.0 42.5 C 135.6 43.4 134.6 40.6 137.5 47.0 C 140.4 53.4 143.8 67.0 150.5 81.0 C 157.2 95.0 170.3 116.7 177.5 131.0 C 184.7 145.3 189.1 158.8 193.5 167.0 C 197.9 175.2 201.8 178.7 204.0 180.5 C 206.2 182.3 206.1 180.8 206.5 178.0 C 206.9 175.2 207.5 172.8 206.5 164.0 C 205.5 155.2 202.2 141.0 200.5 125.0 C 198.8 109.0 198.2 82.8 196.5 68.0 C 194.8 53.2 191.0 43.3 190.5 36.0 C 190.0 28.7 191.6 26.8 193.5 24.0 C 195.4 21.2 200.5 20.3 202.0 19.5 C 203.5 18.7 200.3 18.8 202.5 19.0 Z" fill="#ffffff" stroke="#ffffff" stroke-width="4" stroke-linejoin="round" stroke-linecap="round"/>
</svg>
